<svg width="230" height="52" viewBox="0 0 230 52" fill="none" xmlns="http://www.w3.org/2000/svg">
<g clip-path="url(#clip0_907_38896)">
<path d="M93.3612 16.4872C92.941 15.8496 92.2658 15.5308 91.3358 15.5308C90.5918 15.5308 90.0062 15.7071 89.5929 16.0667C89.1795 16.4262 88.8557 16.9689 88.6077 17.7083L84.5914 29.3488L80.6508 17.7422C80.389 16.9689 80.0583 16.4058 79.6519 16.0599C79.2454 15.7139 78.715 15.5375 78.0467 15.5375C77.3785 15.5375 76.8342 15.7139 76.414 16.0599C75.9869 16.4058 75.6355 16.9621 75.3531 17.7151L71.2609 29.0436L67.4237 17.7151C67.1826 16.9824 66.8519 16.433 66.4248 16.0734C65.9976 15.7139 65.4052 15.5375 64.6405 15.5375C63.552 15.5375 62.7873 15.8564 62.3533 16.494C61.9193 17.1317 61.8573 17.8914 62.1604 18.7869L68.0575 34.9656C68.3399 35.7186 68.712 36.2748 69.1804 36.6208C69.6489 36.9667 70.2482 37.1431 70.9991 37.1431C71.7845 37.1431 72.3976 36.9667 72.8317 36.6208C73.2657 36.2748 73.6239 35.7321 73.9064 34.9995L77.8814 24.2069L81.7737 34.9656C82.0355 35.7186 82.4006 36.2748 82.8622 36.6208C83.3238 36.9667 83.9231 37.1431 84.6465 37.1431C85.4112 37.1431 86.0243 36.9667 86.479 36.6208C86.9337 36.2748 87.2988 35.7321 87.5812 34.9995L93.4783 18.7936C93.8228 17.8982 93.7814 17.1385 93.3543 16.5008L93.3612 16.4872Z" fill="#550099"/>
<path d="M106.54 23.8883C105.906 23.2235 105.135 22.7148 104.225 22.3552C103.316 21.9957 102.31 21.8193 101.201 21.8193C99.6924 21.8193 98.3421 22.1449 97.1641 22.8029C95.986 23.461 95.056 24.3632 94.3809 25.5164C93.7057 26.6696 93.3682 27.9991 93.3682 29.5051C93.3682 31.011 93.7195 32.4084 94.4291 33.5549C95.1318 34.7081 96.1445 35.6035 97.4672 36.2343C98.7899 36.872 100.361 37.1908 102.172 37.1908C102.978 37.1908 103.778 37.1094 104.577 36.9398C105.376 36.7702 106.113 36.526 106.802 36.2072C107.284 36.0105 107.636 35.7324 107.849 35.3728C108.063 35.0133 108.152 34.6334 108.118 34.2264C108.083 33.8194 107.966 33.4667 107.753 33.1682C107.539 32.8697 107.243 32.6594 106.857 32.5305C106.471 32.4017 106.017 32.4356 105.493 32.6323C104.969 32.829 104.418 32.9782 103.847 33.08C103.275 33.1818 102.765 33.2292 102.317 33.2292C100.988 33.2292 100.002 32.9308 99.3686 32.3338C98.9552 31.9404 98.6866 31.357 98.5419 30.604H107.16C107.622 30.604 107.966 30.5023 108.187 30.3055C108.407 30.1088 108.517 29.8171 108.517 29.444C108.517 28.2705 108.345 27.219 108.001 26.2829C107.656 25.3468 107.167 24.5531 106.533 23.8815L106.54 23.8883ZM99.8026 25.7063C100.264 25.4214 100.808 25.2722 101.435 25.2722C102.021 25.2722 102.51 25.3875 102.903 25.6181C103.295 25.8488 103.592 26.1947 103.798 26.6628C103.964 27.0427 104.039 27.5243 104.074 28.0805H98.4868C98.5419 27.6735 98.6246 27.2936 98.7623 26.9748C98.9966 26.4186 99.341 25.998 99.8095 25.7063H99.8026Z" fill="#550099"/>
<path d="M129.047 32.0827C128.751 31.7163 128.365 31.4789 127.882 31.3704C127.4 31.2619 126.863 31.3365 126.277 31.5942C125.692 31.8724 125.099 32.0691 124.507 32.1912C123.914 32.3133 123.329 32.3676 122.764 32.3676C121.531 32.3676 120.497 32.1369 119.664 31.6689C118.823 31.2008 118.196 30.5224 117.769 29.627C117.342 28.7316 117.135 27.6327 117.135 26.3167C117.135 25.0006 117.349 23.9085 117.769 23.0266C118.196 22.1448 118.823 21.4664 119.664 20.9984C120.497 20.5303 121.538 20.2997 122.764 20.2997C123.411 20.2997 124.031 20.3675 124.638 20.4964C125.244 20.6253 125.836 20.8423 126.422 21.134C126.966 21.4122 127.462 21.48 127.903 21.3443C128.344 21.2086 128.709 20.9509 128.992 20.5846C129.274 20.2183 129.453 19.7909 129.522 19.3025C129.591 18.8141 129.522 18.3392 129.309 17.8712C129.095 17.4031 128.695 17.0232 128.11 16.7247C127.345 16.3313 126.463 16.0192 125.464 15.8022C124.465 15.5851 123.515 15.4766 122.605 15.4766C120.828 15.4766 119.244 15.7411 117.838 16.2635C116.433 16.7926 115.241 17.5252 114.249 18.4681C113.257 19.411 112.506 20.5439 111.996 21.8667C111.48 23.1894 111.225 24.675 111.225 26.3234C111.225 28.5281 111.686 30.441 112.602 32.0555C113.519 33.6768 114.828 34.9385 116.522 35.8407C118.217 36.7429 120.242 37.1974 122.605 37.1974C123.611 37.1974 124.638 37.0753 125.678 36.8243C126.718 36.5734 127.586 36.241 128.296 35.8272C128.819 35.549 129.191 35.1827 129.398 34.7215C129.612 34.267 129.674 33.8057 129.598 33.3376C129.515 32.8695 129.329 32.4558 129.04 32.0894L129.047 32.0827Z" fill="#0066EE"/>
<path d="M143.528 22.7419C142.295 22.1246 140.855 21.8193 139.201 21.8193C137.948 21.8193 136.818 21.9957 135.812 22.3417C134.806 22.6876 133.938 23.2032 133.208 23.8747C132.485 24.5531 131.927 25.3603 131.541 26.3033C131.155 27.2462 130.969 28.3112 130.969 29.5051C130.969 31.0721 131.313 32.4424 131.995 33.6023C132.677 34.7623 133.642 35.651 134.868 36.2683C136.094 36.8856 137.541 37.1908 139.195 37.1908C140.428 37.1908 141.544 37.0145 142.556 36.6685C143.562 36.3225 144.43 35.807 145.161 35.1218C145.884 34.4367 146.442 33.6295 146.828 32.6933C147.207 31.7572 147.4 30.699 147.4 29.5051C147.4 27.9177 147.062 26.5475 146.387 25.3943C145.712 24.2411 144.761 23.3592 143.528 22.7419ZM141.62 31.6487C141.378 32.2049 141.048 32.6052 140.634 32.8561C140.221 33.1071 139.739 33.2292 139.195 33.2292C138.368 33.2292 137.693 32.9375 137.169 32.3474C136.646 31.764 136.384 30.8143 136.384 29.5051C136.384 28.6097 136.501 27.8906 136.749 27.3479C136.99 26.7985 137.328 26.3982 137.748 26.1404C138.175 25.8827 138.657 25.7538 139.201 25.7538C140.008 25.7538 140.676 26.0455 141.199 26.6356C141.723 27.219 141.985 28.1823 141.985 29.5119C141.985 30.3869 141.868 31.0992 141.62 31.6555V31.6487Z" fill="#0066EE"/>
<path d="M162.252 22.518C161.488 22.05 160.509 21.8193 159.318 21.8193C158.126 21.8193 157.141 22.0703 156.245 22.5791C155.522 22.9861 154.936 23.5424 154.481 24.2275C154.426 23.5356 154.213 22.9793 153.82 22.5791C153.365 22.111 152.725 21.8804 151.898 21.8804C151.071 21.8804 150.396 22.111 149.948 22.5791C149.501 23.0472 149.266 23.7052 149.266 24.5599V34.4503C149.266 35.305 149.494 35.963 149.948 36.4311C150.403 36.8991 151.071 37.1298 151.96 37.1298C153.758 37.1298 154.654 36.2343 154.654 34.4503V28.6978C154.654 27.8431 154.895 27.1648 155.377 26.656C155.859 26.1472 156.507 25.8962 157.313 25.8962C157.919 25.8962 158.381 26.093 158.691 26.4796C159.001 26.8663 159.159 27.4972 159.159 28.3722V34.4503C159.159 35.305 159.393 35.963 159.855 36.4311C160.317 36.8991 160.985 37.1298 161.853 37.1298C162.721 37.1298 163.389 36.8991 163.851 36.4311C164.312 35.963 164.546 35.305 164.546 34.4503V28.1619C164.546 26.7103 164.354 25.5231 163.975 24.6006C163.589 23.678 163.017 22.9793 162.252 22.518Z" fill="#0066EE"/>
<path d="M179.985 22.518C179.22 22.05 178.242 21.8193 177.05 21.8193C175.858 21.8193 174.873 22.0703 173.978 22.5791C173.254 22.9861 172.669 23.5424 172.214 24.2275C172.159 23.5356 171.945 22.9793 171.553 22.5791C171.098 22.111 170.457 21.8804 169.631 21.8804C168.804 21.8804 168.129 22.111 167.681 22.5791C167.233 23.0472 166.999 23.7052 166.999 24.5599V34.4503C166.999 35.305 167.226 35.963 167.681 36.4311C168.136 36.8991 168.804 37.1298 169.693 37.1298C171.491 37.1298 172.386 36.2343 172.386 34.4503V28.6978C172.386 27.8431 172.627 27.1648 173.11 26.656C173.592 26.1472 174.239 25.8962 175.046 25.8962C175.652 25.8962 176.113 26.093 176.423 26.4796C176.733 26.8663 176.892 27.4972 176.892 28.3722V34.4503C176.892 35.305 177.126 35.963 177.588 36.4311C178.049 36.8991 178.717 37.1298 179.585 37.1298C180.453 37.1298 181.122 36.8991 181.583 36.4311C182.045 35.963 182.279 35.305 182.279 34.4503V28.1619C182.279 26.7103 182.086 25.5231 181.707 24.6006C181.322 23.678 180.75 22.9793 179.985 22.518Z" fill="#0066EE"/>
<path d="M197.821 23.8883C197.187 23.2235 196.416 22.7148 195.506 22.3552C194.597 21.9957 193.591 21.8193 192.482 21.8193C190.973 21.8193 189.623 22.1449 188.445 22.8029C187.267 23.461 186.337 24.3632 185.662 25.5164C184.986 26.6696 184.649 27.9991 184.649 29.5051C184.649 31.011 185 32.4084 185.71 33.5549C186.413 34.7081 187.425 35.6035 188.748 36.2343C190.071 36.872 191.641 37.1908 193.453 37.1908C194.259 37.1908 195.058 37.1094 195.858 36.9398C196.657 36.7702 197.394 36.526 198.083 36.2072C198.565 36.0105 198.916 35.7324 199.13 35.3728C199.343 35.0133 199.433 34.6334 199.399 34.2264C199.364 33.8194 199.247 33.4667 199.033 33.1682C198.82 32.8697 198.524 32.6594 198.138 32.5305C197.752 32.4017 197.297 32.4356 196.774 32.6323C196.25 32.829 195.699 32.9782 195.127 33.08C194.555 33.1818 194.046 33.2292 193.598 33.2292C192.268 33.2292 191.283 32.9308 190.649 32.3338C190.236 31.9404 189.967 31.357 189.823 30.604H198.441C198.903 30.604 199.247 30.5023 199.467 30.3055C199.688 30.1088 199.798 29.8171 199.798 29.444C199.798 28.2705 199.626 27.219 199.281 26.2829C198.937 25.3468 198.448 24.5531 197.814 23.8815L197.821 23.8883ZM191.09 25.7063C191.552 25.4214 192.096 25.2722 192.723 25.2722C193.309 25.2722 193.798 25.3875 194.19 25.6181C194.583 25.8488 194.879 26.1947 195.086 26.6628C195.251 27.0427 195.327 27.5243 195.362 28.0805H189.774C189.83 27.6735 189.912 27.2936 190.05 26.9748C190.284 26.4186 190.629 25.998 191.097 25.7063H191.09Z" fill="#0066EE"/>
<path d="M207.817 26.7916C208.099 26.4728 208.451 26.2286 208.864 26.059C209.277 25.8894 209.746 25.808 210.27 25.808C210.614 25.808 210.958 25.8487 211.317 25.9301C211.668 26.0115 212.006 26.1404 212.329 26.3168C212.791 26.5135 213.204 26.5474 213.569 26.4185C213.935 26.2896 214.231 26.059 214.465 25.7334C214.699 25.4078 214.823 25.0347 214.844 24.6141C214.865 24.1935 214.782 23.8069 214.589 23.4338C214.396 23.0675 214.059 22.7961 213.576 22.613C212.894 22.3145 212.226 22.1042 211.578 21.9889C210.931 21.8668 210.318 21.8125 209.732 21.8125C208.478 21.8125 207.349 21.9889 206.329 22.3484C205.309 22.7079 204.434 23.2099 203.697 23.8679C202.96 24.5259 202.402 25.3264 202.016 26.2693C201.631 27.2122 201.445 28.2772 201.445 29.4711C201.445 31.0381 201.789 32.4084 202.471 33.5684C203.153 34.7283 204.118 35.6238 205.364 36.2479C206.605 36.8719 208.065 37.184 209.739 37.184C210.325 37.184 210.938 37.1229 211.572 37.0076C212.205 36.8923 212.86 36.682 213.521 36.3835C214.003 36.2275 214.341 35.963 214.534 35.5966C214.727 35.2303 214.816 34.8301 214.803 34.4027C214.789 33.9754 214.679 33.5955 214.451 33.2699C214.224 32.9443 213.935 32.7136 213.576 32.5848C213.211 32.4559 212.798 32.5033 212.336 32.7204C212.012 32.8832 211.675 32.9918 211.324 33.0664C210.972 33.1342 210.621 33.1681 210.276 33.1681C209.229 33.1681 208.409 32.8425 207.824 32.1845C207.238 31.5265 206.949 30.6379 206.949 29.505C206.949 28.9081 207.025 28.3857 207.176 27.938C207.328 27.4903 207.541 27.1104 207.824 26.7916H207.817Z" fill="#0066EE"/>
<path d="M229.683 33.0052C229.47 32.7949 229.208 32.6931 228.884 32.6931C228.663 32.7135 228.422 32.7542 228.161 32.8152C227.899 32.8763 227.616 32.9034 227.313 32.9034C226.549 32.9034 225.991 32.7271 225.646 32.3811C225.302 32.0351 225.129 31.4924 225.129 30.7598V26.0792H227.609C228.257 26.0792 228.76 25.9096 229.118 25.5704C229.483 25.2312 229.662 24.7564 229.662 24.1391C229.662 23.4811 229.483 22.9927 229.118 22.6671C228.753 22.3415 228.25 22.1787 227.609 22.1787H225.129V20.2996C225.129 19.4449 224.895 18.7869 224.434 18.3188C223.972 17.8508 223.304 17.6201 222.436 17.6201C221.568 17.6201 220.899 17.8508 220.438 18.3188C219.976 18.7869 219.742 19.4449 219.742 20.2996V22.1787H218.743C218.096 22.1787 217.586 22.3415 217.214 22.6671C216.842 22.9927 216.656 23.4879 216.656 24.1391C216.656 24.7564 216.842 25.2312 217.214 25.5704C217.586 25.9096 218.096 26.0792 218.743 26.0792H219.742V30.9362C219.742 32.3268 219.983 33.4868 220.465 34.4094C220.948 35.3319 221.685 36.0306 222.677 36.4919C223.662 36.96 224.909 37.1906 226.397 37.1906C226.7 37.1906 227.086 37.1567 227.561 37.0889C228.037 37.021 228.422 36.9261 228.726 36.804C229.187 36.6276 229.518 36.3291 229.711 35.9221C229.904 35.5151 230 35.0131 230 34.4162C230 33.6835 229.897 33.2087 229.683 32.9984V33.0052Z" fill="#0066EE"/>
<path d="M47.8657 40.7015C47.783 40.5387 47.8037 40.3419 47.9139 40.1723C51.3378 35.1729 52.8465 29.3526 52.2747 23.3424C51.138 11.3966 41.5691 1.66222 29.52 0.203762C21.3771 -0.793417 13.4201 1.89286 7.66772 7.55711C1.92219 13.2214 -0.799007 21.0631 0.206804 29.0745C1.63285 40.4369 10.6576 49.5743 22.1555 51.2906C23.492 51.4873 24.8354 51.589 26.165 51.589C31.5247 51.589 36.7329 49.9881 41.1695 46.9355C41.3348 46.8202 41.5346 46.7999 41.6999 46.8813L48.1275 50.0424C48.9955 50.4697 50.0082 50.3069 50.6902 49.6286C51.3792 48.9502 51.5376 47.9598 51.1036 47.1051L47.8588 40.7015H47.8657ZM42.7058 44.8937C41.8033 44.446 40.7148 44.5342 39.8674 45.1175C34.8108 48.5975 28.6382 50.0085 22.4862 49.0927C11.9872 47.5257 3.74781 39.1887 2.44577 28.8031C1.52951 21.4769 4.0096 14.3067 9.26599 9.13089C13.8059 4.66054 19.8477 2.22526 26.2063 2.22526C27.2121 2.22526 28.2248 2.28631 29.2375 2.40841C40.2395 3.74477 48.9817 12.6312 50.022 23.5459C50.5456 29.0406 49.1677 34.3589 46.0401 38.9242C45.4752 39.7518 45.3994 40.8168 45.8403 41.6919L49.1333 48.0412L42.7058 44.8869V44.8937Z" fill="url(#paint0_linear_907_38896)"/>
<path opacity="0.3" d="M42.1132 19.4145C41.6861 18.2545 40.8181 17.3251 39.6952 16.8096C39.0614 16.5315 38.4 16.3754 37.718 16.3754C35.8993 16.3754 34.2321 17.4201 33.4536 19.0481L31.9518 22.2296L30.4431 19.0481C30.388 18.9464 30.326 18.8446 30.2777 18.7565C30.2364 18.6818 30.202 18.6004 30.1468 18.5258C30.0022 18.3087 29.8644 18.1188 29.6922 17.9424C29.6164 17.8542 29.5268 17.7796 29.4442 17.6847C29.3408 17.5965 29.2375 17.4947 29.1204 17.4065C29.017 17.3319 28.9137 17.2505 28.7966 17.1759C28.6795 17.0877 28.5486 17.0199 28.4246 16.9588C28.335 16.9046 28.2592 16.8435 28.1766 16.8028C28.1352 16.7892 28.087 16.7757 28.0457 16.7621C27.8252 16.6603 27.591 16.5857 27.3499 16.5315C27.2465 16.5043 27.157 16.484 27.0536 16.4568C26.785 16.4094 26.5232 16.3822 26.2545 16.3822C26.2269 16.3822 26.2132 16.3687 26.1994 16.3687H26.1718C26.1718 16.3687 26.1305 16.3822 26.1167 16.3822C25.848 16.3822 25.5862 16.4094 25.3176 16.4568C25.2142 16.484 25.1247 16.5111 25.0213 16.5315C24.7733 16.5857 24.546 16.6603 24.3118 16.7621C24.2704 16.7757 24.236 16.7892 24.1946 16.8028C24.1189 16.8435 24.0362 16.9046 23.9604 16.9453C23.8295 17.0199 23.6986 17.0877 23.5746 17.1759C23.4575 17.2505 23.3542 17.3319 23.2508 17.4065C23.1337 17.4947 23.0304 17.5965 22.927 17.6982C22.8513 17.7728 22.7617 17.8542 22.679 17.9289C22.5137 18.1188 22.3553 18.3223 22.2244 18.5258C22.1692 18.6004 22.1348 18.6683 22.0935 18.7429C22.0384 18.8446 21.9764 18.9328 21.9281 19.0481L20.4194 22.2296L18.9176 19.0481C18.1391 17.4201 16.4788 16.3754 14.6532 16.3754C13.9712 16.3754 13.2961 16.5315 12.676 16.8096C11.5531 17.3319 10.6851 18.2613 10.258 19.4145C9.83084 20.5744 9.88595 21.8294 10.4164 22.9351L16.1619 35.098C16.2239 35.2269 16.3066 35.3422 16.3686 35.4575C16.3962 35.5118 16.4237 35.5457 16.4444 35.6C16.5891 35.8306 16.7406 36.0341 16.9197 36.2376C16.9817 36.2987 17.0506 36.3529 17.1126 36.414C17.2435 36.5429 17.3606 36.6582 17.4984 36.76C17.588 36.8346 17.6775 36.9024 17.7809 36.9635C17.9256 37.0652 18.0633 37.1398 18.2218 37.2212C18.2976 37.2619 18.3527 37.3094 18.4285 37.3501C18.456 37.3637 18.4836 37.3637 18.5042 37.3773C18.7385 37.479 18.9934 37.5536 19.2552 37.635C19.3447 37.6486 19.448 37.6757 19.5376 37.6893C19.8063 37.7436 20.0818 37.7775 20.3505 37.7775C20.3781 37.7775 20.3919 37.7911 20.4056 37.7911H20.4194C20.4194 37.7911 20.447 37.7775 20.4745 37.7775C20.7432 37.7775 21.0188 37.7368 21.2737 37.6893C21.377 37.6757 21.4803 37.6486 21.5699 37.635C21.8317 37.5604 22.0728 37.479 22.3208 37.3773C22.3484 37.3637 22.3759 37.3637 22.3966 37.3501C22.4724 37.3094 22.5275 37.2619 22.6033 37.2212C22.7479 37.1466 22.8995 37.0652 23.0304 36.9635C23.1337 36.9024 23.2371 36.8346 23.3266 36.76C23.4575 36.6582 23.5884 36.5429 23.6986 36.4276C23.7606 36.3665 23.8433 36.2987 23.9053 36.2241C24.0706 36.0341 24.2291 35.8306 24.3738 35.6135C24.4151 35.5525 24.4358 35.4982 24.4771 35.4372C24.5391 35.3354 24.608 35.2201 24.6562 35.1048L26.1649 31.9233L27.6737 35.1048C27.7288 35.2201 27.7908 35.3354 27.8528 35.4372C27.8941 35.4982 27.9148 35.5525 27.9561 35.6135C28.1008 35.8306 28.2523 36.0341 28.4246 36.2241C28.4866 36.2987 28.5692 36.3665 28.6312 36.4276C28.7484 36.5429 28.8792 36.6582 29.0033 36.76C29.0928 36.8346 29.1961 36.9024 29.2857 36.9635C29.4304 37.0652 29.5682 37.1398 29.7266 37.2212C29.8024 37.2619 29.8575 37.3094 29.9333 37.3501C29.9608 37.3637 29.9815 37.3637 30.0091 37.3773C30.2571 37.479 30.4982 37.5536 30.76 37.635C30.8495 37.6486 30.9529 37.6757 31.0424 37.6893C31.3111 37.7436 31.5867 37.7775 31.8691 37.7775C31.8829 37.7775 31.8967 37.7911 31.9105 37.7911H31.9242C31.9242 37.7911 31.9518 37.7775 31.9656 37.7775C32.248 37.7775 32.5236 37.7368 32.7923 37.6893C32.8818 37.6757 32.9852 37.6486 33.0747 37.635C33.3365 37.5604 33.5914 37.479 33.8394 37.3705C33.867 37.3705 33.8807 37.3705 33.9014 37.3569C33.9634 37.3162 34.0323 37.2823 34.0943 37.2416C34.2528 37.167 34.4043 37.0788 34.549 36.977C34.6523 36.916 34.7419 36.8481 34.8314 36.7735C34.9623 36.6718 35.0932 36.5565 35.2035 36.4411C35.2792 36.3665 35.3481 36.3122 35.4101 36.2376C35.5755 36.0477 35.7339 35.8442 35.8786 35.6271C35.9199 35.5661 35.9406 35.5118 35.9819 35.4507C36.0439 35.349 36.1128 35.2337 36.161 35.1183L41.9203 22.9555C42.4508 21.8497 42.499 20.588 42.0788 19.4348L42.1132 19.4145ZM16.3066 30.9533L15.0252 28.2466L12.1456 22.1686C11.4842 20.7847 12.0905 19.1431 13.5027 18.4919C13.8748 18.3291 14.2674 18.2341 14.6808 18.2341C15.7693 18.2341 16.7751 18.8582 17.2229 19.8215L19.4067 24.4275L16.3066 30.9533ZM22.9339 34.3993C22.8306 34.6028 22.6997 34.7927 22.5619 34.9623C22.5619 34.9759 22.5481 34.9759 22.5481 34.9895C22.3828 35.1658 22.1968 35.3218 21.9901 35.4507C21.9488 35.4779 21.9144 35.505 21.873 35.5118C21.7077 35.6135 21.5079 35.7017 21.315 35.7696C21.2599 35.7831 21.2254 35.8103 21.1703 35.8238C20.9361 35.8849 20.695 35.9256 20.4332 35.9256C20.1714 35.9256 19.9441 35.8849 19.6961 35.8238C19.6547 35.8103 19.6065 35.7831 19.5652 35.7696C19.3723 35.7085 19.1794 35.6135 18.9934 35.5118C18.9658 35.4982 18.9314 35.4711 18.89 35.4507C18.6834 35.3218 18.4905 35.1726 18.332 34.9895C18.332 34.9895 18.3274 34.9804 18.3182 34.9623C18.1598 34.7995 18.0496 34.6028 17.9462 34.3993C17.5742 33.6599 17.5053 32.7848 17.8911 31.9844L20.4263 26.6186L22.9684 31.9844C23.3542 32.7848 23.2922 33.6667 22.9202 34.3993H22.9339ZM24.5735 30.9533L21.4872 24.4275L22.0659 23.1929L25.166 29.7322L24.5735 30.9533ZM23.6573 22.1618C23.2853 21.3613 23.3335 20.493 23.6986 19.7604C23.9329 19.3263 24.2704 18.96 24.67 18.6886C24.6976 18.6751 24.732 18.6479 24.7596 18.6344C24.9387 18.519 25.1316 18.4444 25.3382 18.3698C25.3934 18.3562 25.4278 18.3427 25.4691 18.3291C25.7034 18.268 25.9445 18.2273 26.2063 18.2273C26.4681 18.2273 26.7092 18.268 26.9434 18.3291L27.0605 18.3698C27.2672 18.4444 27.4739 18.5258 27.653 18.6344C27.6805 18.6479 27.7081 18.6751 27.7425 18.6886C28.1421 18.9532 28.4797 19.3263 28.7001 19.7604C29.0721 20.4998 29.1273 21.3613 28.7552 22.1618L26.2132 27.5276L23.6711 22.1618H23.6573ZM27.8114 30.9533L27.2327 29.7322L30.3328 23.1929L30.9115 24.4275L27.8114 30.9533ZM34.4388 34.3993C34.3354 34.6028 34.2183 34.7927 34.0667 34.9623C34.0667 34.9759 34.053 34.9759 34.053 34.9895C33.8876 35.1658 33.7016 35.3218 33.495 35.4507C33.4536 35.4779 33.4192 35.505 33.3916 35.5118C33.2125 35.6135 33.0196 35.7017 32.8198 35.7696C32.7647 35.7831 32.7303 35.8103 32.6751 35.8238C32.4409 35.8849 32.1998 35.9256 31.9518 35.9256C31.69 35.9256 31.4489 35.8849 31.2147 35.8238C31.1595 35.8103 31.1251 35.7831 31.07 35.7696C30.8771 35.7085 30.6842 35.6135 30.4982 35.5118C30.4706 35.4982 30.4362 35.4711 30.3949 35.4507C30.1882 35.3218 30.0091 35.1726 29.8368 34.9895C29.8368 34.9759 29.8231 34.9759 29.8231 34.9623C29.6646 34.7995 29.5544 34.6028 29.451 34.3993C29.079 33.6599 29.0101 32.7848 29.3959 31.9844L31.938 26.6186L34.4732 31.9844C34.859 32.7848 34.797 33.6667 34.4181 34.3993H34.4388ZM40.2532 22.1618L37.3735 28.2398L36.0921 30.9465L32.992 24.4207L35.1621 19.8147C35.6306 18.8446 36.6226 18.2273 37.718 18.2273C38.1313 18.2273 38.5171 18.3155 38.896 18.4851C40.3014 19.1363 40.9145 20.7779 40.2532 22.1618Z" fill="url(#paint1_linear_907_38896)"/>
<path d="M42.1131 19.4145C41.686 18.2545 40.818 17.3252 39.695 16.8164C39.0612 16.5247 38.3999 16.3823 37.7179 16.3823C35.8991 16.3823 34.2182 17.4269 33.4535 19.0414L31.9999 22.1076L31.6141 22.9284L31.2421 23.7221L30.9114 24.4343L31.2421 25.133L31.4281 25.5333L31.6072 25.9131H31.6141L31.9448 26.6254L32.2824 25.9131L35.162 19.8351C35.6236 18.865 36.6225 18.241 37.7179 18.241C38.1243 18.241 38.5239 18.3291 38.8959 18.4987C40.3013 19.1432 40.9075 20.7916 40.2531 22.1686L37.3734 28.2467L34.4938 34.3247C34.4731 34.3654 34.4455 34.3926 34.4249 34.4265C34.3353 34.5961 34.232 34.7589 34.1011 34.9081C34.0735 34.9352 34.0597 34.9692 34.0322 34.9963C33.8806 35.1659 33.7015 35.3083 33.5086 35.4372C33.4535 35.4711 33.3984 35.5051 33.3433 35.5322C33.2744 35.5729 33.2055 35.6204 33.1297 35.6543C33.0402 35.695 32.9506 35.7153 32.861 35.7425C32.7921 35.7696 32.7233 35.79 32.6544 35.8103C32.4408 35.8646 32.2204 35.8985 31.9999 35.9053C31.9792 35.9053 31.9586 35.9121 31.9379 35.9121C31.683 35.9121 31.435 35.8646 31.1939 35.7967C31.1663 35.79 31.1388 35.7764 31.1043 35.7696C30.9872 35.7357 30.8701 35.7086 30.7599 35.6543C30.6634 35.6068 30.5739 35.5458 30.4774 35.4915C30.4567 35.4779 30.4361 35.4711 30.4154 35.4576C30.2018 35.3219 30.0089 35.1659 29.8436 34.9827C29.8298 34.9692 29.8229 34.9556 29.816 34.942C29.6783 34.7792 29.5612 34.6028 29.4647 34.4129C29.444 34.379 29.4165 34.3519 29.3958 34.3179L28.5898 32.6153C28.5898 32.6153 28.5898 32.6153 28.5898 32.6221L28.2591 31.9166L27.8044 30.9465L27.2257 29.7187L30.1398 23.5796L30.4361 22.9419C30.5187 22.7724 30.567 22.596 30.6221 22.4196C30.6772 22.2432 30.7323 22.0669 30.7736 21.8837C30.939 21.0697 30.8908 20.2218 30.5876 19.4145C30.4843 19.1364 30.3534 18.8718 30.2018 18.6276C30.1881 18.6073 30.1743 18.5869 30.1674 18.5666C30.0158 18.3291 29.8505 18.1053 29.6645 17.9018C29.6025 17.8407 29.5405 17.7797 29.4785 17.7254C29.3545 17.6033 29.2236 17.4812 29.0789 17.3727C28.9962 17.3116 28.9136 17.2506 28.8309 17.1895C28.6242 17.0471 28.4038 16.9114 28.1696 16.8029C28.1282 16.7757 28.0938 16.7757 28.0387 16.7554C27.8182 16.6672 27.584 16.5926 27.3566 16.5247C27.2533 16.4976 27.15 16.4772 27.0466 16.4637C26.7848 16.4162 26.5299 16.3755 26.2613 16.3755H26.1304C25.8617 16.3755 25.5861 16.4162 25.3312 16.4637C25.2279 16.4772 25.1246 16.5044 25.035 16.5247C24.787 16.5858 24.5459 16.6672 24.3254 16.7689C24.2841 16.7825 24.2496 16.7825 24.2083 16.8096C24.1325 16.8503 24.0499 16.8978 23.9741 16.9521C23.8294 17.0131 23.7054 17.0945 23.5883 17.1692C23.4712 17.2438 23.3678 17.3252 23.2645 17.4134C23.1474 17.5016 23.044 17.5897 22.9407 17.6915C22.8512 17.7661 22.7754 17.8475 22.6927 17.9357C22.5274 18.1121 22.3689 18.3156 22.238 18.5327C22.1898 18.5937 22.1485 18.6751 22.1071 18.7497C22.0589 18.8515 21.99 18.9397 21.9418 19.0414L20.4331 22.2365L18.9244 19.0414C18.1597 17.4269 16.4925 16.3823 14.6738 16.3823C13.9918 16.3823 13.3166 16.5247 12.6966 16.8164C11.5599 17.3252 10.7056 18.2545 10.2785 19.4145C9.83762 20.5881 9.90651 21.8295 10.4232 22.9487L16.1825 35.1116C16.2445 35.2269 16.3134 35.3423 16.3754 35.4576C16.4167 35.5051 16.4374 35.5593 16.4649 35.6136C16.6096 35.8307 16.7612 36.0477 16.9403 36.2377L17.1332 36.4276C17.2641 36.5429 17.3812 36.6583 17.5052 36.76C17.6085 36.8346 17.6981 36.916 17.8014 36.9771C17.9461 37.0653 18.0839 37.1399 18.2286 37.2213C18.3043 37.2756 18.3732 37.323 18.449 37.3502C18.4766 37.3637 18.5041 37.3773 18.5248 37.3909C18.7728 37.4926 19.0139 37.5672 19.2619 37.6351C19.3653 37.6622 19.4548 37.6894 19.5582 37.6961C19.8268 37.7436 20.1024 37.7843 20.3711 37.7843H20.4744C20.7569 37.7843 21.0324 37.7436 21.2873 37.6961C21.3907 37.6826 21.4802 37.6554 21.5836 37.6351C21.8453 37.574 22.0865 37.4926 22.3345 37.3841C22.362 37.3841 22.3758 37.3705 22.3965 37.357H22.4103C22.486 37.3163 22.5549 37.2823 22.6169 37.2416C22.9132 37.0788 22.9889 37.0246 23.0716 36.9771C23.1474 36.9228 23.2369 36.8618 23.3058 36.8007C23.4987 36.6447 23.6916 36.4955 23.8639 36.3191C23.8639 36.3055 23.8776 36.3055 23.8776 36.3055C23.981 36.1902 24.0843 36.0749 24.1739 35.946C24.2496 35.8307 24.3323 35.7153 24.4081 35.5865C24.4219 35.5729 24.4357 35.5458 24.4494 35.5254C24.5941 35.2812 24.7181 35.0302 24.8214 34.7521C25.1315 33.9245 25.1866 33.063 25.0006 32.2218C24.973 32.1201 24.9523 32.0183 24.911 31.9166C24.849 31.6859 24.7801 31.4553 24.663 31.2314L24.5597 31.0008L24.5459 30.9872L23.795 29.3999H23.8087L21.4733 24.4547L22.052 23.2201L22.3896 22.5078V22.4942L22.6583 21.9244L23.6434 19.8622C23.6434 19.8622 23.671 19.8215 23.6847 19.8147V19.8012C23.7123 19.7605 23.7399 19.7401 23.7467 19.6994C23.8225 19.557 23.9121 19.4213 24.0154 19.306C24.0292 19.2924 24.0292 19.2788 24.043 19.2788C24.1463 19.15 24.2634 19.0279 24.3805 18.9329C24.4701 18.8583 24.5597 18.7769 24.6492 18.7294C24.6768 18.7022 24.7112 18.6887 24.7388 18.6819H24.7526C24.7526 18.6819 24.8146 18.6344 24.8559 18.6208C24.973 18.5598 25.1039 18.5055 25.2279 18.458C25.2555 18.4445 25.283 18.4309 25.3175 18.4173H25.3312C25.3932 18.3902 25.4759 18.3766 25.5379 18.3698C25.6275 18.3291 25.717 18.3224 25.8066 18.3088C25.9375 18.2817 26.0684 18.2681 26.1924 18.2681C26.5919 18.2681 26.9915 18.3563 27.3704 18.5327C27.4669 18.5734 27.5426 18.6344 27.6253 18.6819C27.6529 18.6955 27.6735 18.709 27.7011 18.7294C27.9078 18.8583 28.1007 19.0075 28.2591 19.1907C28.3487 19.2788 28.4244 19.367 28.4933 19.4688C28.4933 19.4688 28.4796 19.4823 28.4933 19.4823C28.6725 19.7469 28.8033 20.0454 28.8791 20.3506C28.8929 20.3642 28.8929 20.3778 28.8929 20.3981C28.9342 20.5541 28.9549 20.717 28.9687 20.8798V21.0968C28.9687 21.2121 28.9549 21.3275 28.9411 21.4292C28.9274 21.4903 28.9274 21.5717 28.9136 21.6327C28.8722 21.7887 28.824 21.9244 28.7551 22.0804C28.7414 22.1211 28.7276 22.1551 28.7138 22.1958L26.1717 27.5751L25.8341 28.2738L25.4621 29.0607L25.1246 29.7594L25.4621 30.4581L25.5792 30.7159L26.1717 31.964L27.6735 35.1455C27.7355 35.2744 27.8182 35.3762 27.8802 35.4915C27.9078 35.539 27.9353 35.5932 27.956 35.6475C28.1007 35.8646 28.2522 36.0817 28.4313 36.2716C28.4933 36.3326 28.5622 36.4005 28.6242 36.4615C28.7413 36.5769 28.8722 36.6922 29.01 36.8075C29.0996 36.8685 29.1891 36.9499 29.2925 37.011C29.4371 37.0992 29.5749 37.1874 29.7334 37.2688C29.8092 37.3095 29.8643 37.357 29.9401 37.3841C29.9676 37.3977 29.9883 37.3977 30.0021 37.4112C30.2501 37.5266 30.505 37.6012 30.7667 37.6622C30.8563 37.6894 30.9596 37.7165 31.0492 37.7233C31.3179 37.7708 31.5934 37.8115 31.8621 37.8115H31.9655C32.2479 37.8115 32.5235 37.7708 32.7921 37.7233C32.8817 37.7097 32.9713 37.6826 33.0746 37.6622C33.3364 37.6012 33.5913 37.5198 33.8393 37.4112C33.8531 37.3977 33.8806 37.3977 33.9013 37.3841C33.9633 37.357 34.0322 37.3095 34.0942 37.2688C34.2526 37.1942 34.4042 37.106 34.5489 37.011C34.6384 36.9499 34.7418 36.8685 34.8313 36.7939C34.9622 36.6922 35.0931 36.5769 35.2033 36.4615C35.2653 36.4005 35.348 36.3326 35.41 36.2716C35.5754 36.0817 35.7338 35.8781 35.8785 35.6475C35.9198 35.5932 35.9405 35.5322 35.9818 35.4847C36.0438 35.3694 36.1127 35.2676 36.1609 35.1523L41.9202 22.9894C42.4507 21.8702 42.4989 20.622 42.0787 19.4552L42.1131 19.4145ZM22.9683 31.9776C23.2921 32.6424 23.3196 33.3886 23.0578 34.0873C23.0096 34.2298 22.9407 34.3519 22.8649 34.4943C22.8098 34.5825 22.7478 34.6842 22.6858 34.7724C22.61 34.8742 22.5274 34.9624 22.4516 35.0506C22.3207 35.193 22.1829 35.3083 22.0245 35.4101C21.9487 35.4576 21.866 35.4983 21.7902 35.5525C21.6593 35.6136 21.5284 35.6814 21.4044 35.7153C21.3149 35.756 21.2115 35.79 21.122 35.8171C20.9566 35.8578 20.7706 35.8781 20.5915 35.8917C20.5364 35.8917 20.4882 35.9053 20.4331 35.9053C20.3504 35.9053 20.2746 35.8782 20.192 35.8714C19.8544 35.8442 19.5375 35.756 19.2344 35.6136C19.1448 35.5729 19.0553 35.5458 18.9726 35.4983C18.9726 35.4983 18.9588 35.4915 18.9519 35.4847C18.8279 35.4101 18.7315 35.3151 18.6212 35.2201C18.5248 35.1455 18.4215 35.0777 18.3388 34.9895C18.3388 34.9895 18.3388 34.9895 18.3388 34.9827C18.2217 34.8606 18.139 34.7114 18.0494 34.5621C18.0219 34.5214 17.9943 34.4875 17.9668 34.44C17.9668 34.44 17.9668 34.4333 17.9668 34.4265C17.9461 34.3858 17.9048 34.3519 17.8841 34.3044L15.0045 28.2263L12.1317 22.1483C11.4703 20.7644 12.0766 19.1228 13.4888 18.4716C13.8609 18.3088 14.2535 18.2138 14.6669 18.2138C15.7623 18.2138 16.7612 18.8379 17.2227 19.8012L19.4066 24.4208L20.44 26.6118L22.9752 31.964L22.9683 31.9776Z" fill="url(#paint2_linear_907_38896)"/>
</g>
<defs>
<linearGradient id="paint0_linear_907_38896" x1="0.000130672" y1="25.798" x2="52.3919" y2="25.798" gradientUnits="userSpaceOnUse">
<stop stop-color="#550099"/>
<stop offset="1" stop-color="#0066EE"/>
</linearGradient>
<linearGradient id="paint1_linear_907_38896" x1="9.99618" y1="27.0731" x2="42.4026" y2="27.0731" gradientUnits="userSpaceOnUse">
<stop stop-color="#550099"/>
<stop offset="1" stop-color="#0066EE"/>
</linearGradient>
<linearGradient id="paint2_linear_907_38896" x1="9.98918" y1="27.0731" x2="42.4025" y2="27.0731" gradientUnits="userSpaceOnUse">
<stop stop-color="#550099"/>
<stop offset="1" stop-color="#0066EE"/>
</linearGradient>
<clipPath id="clip0_907_38896">
<rect width="230" height="51.5888" fill="white"/>
</clipPath>
</defs>
</svg>
