<svg width="20" height="20" viewBox="0 0 20 20" fill="none" xmlns="http://www.w3.org/2000/svg">
<path d="M18.2716 15.7801C18.2401 15.7171 18.2464 15.64 18.2905 15.5755C19.598 13.6386 20.1723 11.3823 19.9551 9.05049C19.5209 4.41673 15.8675 0.645216 11.2685 0.0787809C8.1595 -0.30671 5.12131 0.734902 2.92802 2.93141C0.733152 5.12478 -0.305279 8.16622 0.0786256 11.2722C0.621442 15.6778 4.06714 19.2196 8.45687 19.8851C8.96822 19.9622 9.47957 20 9.98777 20C12.0332 20 14.0235 19.3801 15.7149 18.1968C15.7794 18.1528 15.8549 18.1434 15.9178 18.1764L18.3723 19.4005C18.7043 19.5673 19.0898 19.5028 19.351 19.24C19.6137 18.9773 19.6751 18.5934 19.5099 18.2614L18.2716 15.7785V15.7801ZM16.3033 17.4038C15.9587 17.2308 15.5418 17.2638 15.2193 17.4904C13.2903 18.8404 10.9334 19.3864 8.58589 19.0323C4.57692 18.425 1.43173 15.1916 0.934544 11.1668C0.58368 8.32671 1.53243 5.54646 3.53849 3.5419C5.2692 1.80798 7.57735 0.863923 10.0051 0.863923C10.3874 0.863923 10.7745 0.887525 11.1631 0.934728C15.364 1.45239 18.6996 4.8982 19.0961 9.12916C19.2959 11.2596 18.7704 13.3224 17.5762 15.0925C17.3606 15.4134 17.3307 15.8257 17.5007 16.1655L18.7578 18.628L16.3033 17.4038Z" fill="url(#paint0_linear_1455_12750)"/>
<path opacity="0.3" d="M16.0767 7.52551C15.9146 7.07708 15.5842 6.71676 15.1547 6.51379C14.9124 6.40522 14.6622 6.34543 14.3995 6.34543C13.704 6.34543 13.0684 6.7498 12.7726 7.38075L12.1999 8.61432L11.6224 7.38075C11.602 7.34141 11.5784 7.30208 11.5579 7.26746C11.5438 7.23757 11.528 7.20767 11.5092 7.17935C11.4557 7.09596 11.4006 7.02201 11.3361 6.95278C11.3062 6.91816 11.2716 6.88827 11.2417 6.85365C11.2024 6.81903 11.163 6.7797 11.119 6.74508C11.0796 6.71519 11.0403 6.68529 10.9962 6.65697C10.9522 6.62236 10.9018 6.59718 10.8531 6.57358C10.8184 6.55312 10.7886 6.52952 10.7587 6.51379C10.7445 6.50907 10.724 6.50435 10.7099 6.49963C10.6265 6.46029 10.5368 6.4304 10.444 6.41152C10.4046 6.40208 10.37 6.39106 10.3307 6.38162C10.2269 6.36117 10.1277 6.35173 10.0255 6.35173C10.016 6.35173 10.0113 6.34701 10.005 6.34701H9.99557C9.99557 6.34701 9.98141 6.35173 9.97512 6.35173C9.87127 6.35173 9.77373 6.36117 9.66988 6.38162C9.63055 6.39106 9.59593 6.40208 9.5566 6.41152C9.4622 6.43197 9.37409 6.46029 9.28598 6.49963C9.27182 6.50435 9.25608 6.50907 9.24192 6.51379C9.21203 6.52795 9.18213 6.55313 9.15381 6.56729C9.10504 6.59718 9.05469 6.62078 9.00592 6.6554C8.96186 6.68529 8.92253 6.71519 8.88319 6.74351C8.83914 6.77813 8.7998 6.81746 8.76047 6.8568C8.73057 6.88669 8.69596 6.91659 8.66607 6.94491C8.60156 7.01886 8.54334 7.09753 8.49299 7.1762C8.47254 7.2061 8.45838 7.2297 8.44422 7.2596C8.42377 7.29893 8.40016 7.33355 8.37971 7.3776L7.80228 8.61117L7.22957 7.3776C6.93378 6.74666 6.29813 6.34229 5.6027 6.34229C5.34152 6.34229 5.08505 6.40208 4.84747 6.51064C4.41794 6.71204 4.08753 7.07236 3.92547 7.52236C3.76342 7.97079 3.7823 8.46012 3.98526 8.8881L6.18013 13.6021C6.2053 13.6509 6.23362 13.6965 6.2588 13.7406C6.26824 13.761 6.27925 13.7752 6.28869 13.7941C6.34219 13.8822 6.40197 13.9624 6.4712 14.0411C6.49638 14.0663 6.51998 14.0851 6.54515 14.1103C6.59393 14.1591 6.63955 14.2047 6.69305 14.2441C6.72766 14.274 6.76228 14.2976 6.80161 14.3227C6.85511 14.3621 6.91017 14.392 6.96996 14.4219C6.99986 14.436 7.01874 14.4565 7.04863 14.4706C7.05807 14.4754 7.06909 14.4754 7.07853 14.4801C7.16664 14.5194 7.26576 14.5493 7.36488 14.5792C7.3995 14.5839 7.43883 14.5934 7.47344 14.5997C7.57729 14.6201 7.68113 14.6343 7.7834 14.6343C7.79284 14.6343 7.79756 14.639 7.80385 14.639H7.80857C7.80857 14.639 7.81801 14.6343 7.82903 14.6343C7.93287 14.6343 8.03671 14.6201 8.13426 14.5997C8.1736 14.5949 8.21293 14.5855 8.24755 14.5792C8.34667 14.5493 8.4395 14.5194 8.5339 14.4801C8.54334 14.4754 8.55436 14.4754 8.5638 14.4706C8.59369 14.4565 8.61257 14.436 8.64247 14.4219C8.69596 14.392 8.75575 14.3621 8.80452 14.3227C8.84386 14.2976 8.88319 14.274 8.91781 14.2441C8.96658 14.2047 9.01693 14.1607 9.06098 14.1166C9.08616 14.0914 9.11448 14.0678 9.13965 14.0379C9.20416 13.964 9.26238 13.8853 9.31745 13.8019C9.33161 13.7767 9.34262 13.7579 9.35678 13.7327C9.38195 13.6934 9.40555 13.6493 9.42601 13.6052L10.0034 12.3717L10.5809 13.6052C10.6013 13.6493 10.6249 13.6934 10.6501 13.7327C10.6643 13.7579 10.6753 13.7767 10.6894 13.8019C10.7429 13.8853 10.8027 13.964 10.8672 14.0379C10.8924 14.0678 10.9207 14.0914 10.9459 14.1166C10.9899 14.1607 11.0403 14.2047 11.0891 14.2441C11.1237 14.274 11.163 14.2976 11.1976 14.3227C11.2511 14.3621 11.3062 14.392 11.366 14.4219C11.3959 14.436 11.4148 14.4565 11.4447 14.4706C11.4541 14.4754 11.4651 14.4754 11.4745 14.4801C11.569 14.5194 11.6618 14.5493 11.7609 14.5792C11.7955 14.5839 11.8349 14.5934 11.8695 14.5997C11.9733 14.6201 12.0772 14.6343 12.1857 14.6343C12.1904 14.6343 12.1952 14.639 12.1999 14.639H12.2046C12.2046 14.639 12.214 14.6343 12.2188 14.6343C12.3273 14.6343 12.4312 14.6201 12.535 14.5997C12.5696 14.5949 12.609 14.5855 12.6436 14.5792C12.7427 14.5493 12.8402 14.5194 12.9346 14.4754C12.9441 14.4754 12.9488 14.4754 12.9598 14.4706C12.985 14.4565 13.0086 14.4407 13.0338 14.4266C13.0936 14.3967 13.1518 14.3621 13.2068 14.3227C13.2462 14.2976 13.2808 14.274 13.3154 14.2441C13.3642 14.2047 13.4145 14.1607 13.4586 14.1166C13.4885 14.0867 13.5121 14.0678 13.5372 14.0379C13.6018 13.964 13.66 13.8853 13.715 13.8019C13.7292 13.7767 13.7402 13.7579 13.7544 13.7327C13.7795 13.6934 13.8032 13.6493 13.8236 13.6052L16.0232 8.89124C16.2262 8.4617 16.245 7.97393 16.083 7.52551H16.0767ZM6.22261 11.9988L5.73486 10.9477L4.63507 8.59072C4.38333 8.0526 4.61461 7.41694 5.15271 7.16519C5.29589 7.10068 5.44378 7.06606 5.60112 7.06606C6.01492 7.06606 6.4004 7.30837 6.5719 7.68285L7.40579 9.46869L6.22261 11.9988ZM8.7526 13.3346C8.71327 13.4133 8.66449 13.4872 8.60942 13.5517C8.60942 13.5565 8.6047 13.5565 8.6047 13.5612C8.5402 13.6304 8.47097 13.6886 8.3923 13.739C8.37814 13.7484 8.3624 13.7594 8.34824 13.7642C8.28374 13.8035 8.20979 13.8381 8.13584 13.8633C8.11538 13.868 8.10122 13.8774 8.08234 13.8837C7.99423 13.9089 7.89983 13.9231 7.80071 13.9231C7.70158 13.9231 7.61348 13.9089 7.51907 13.8837C7.50491 13.879 7.48446 13.8696 7.4703 13.8633C7.39635 13.8381 7.3224 13.8035 7.25317 13.7642C7.24373 13.7594 7.228 13.75 7.21384 13.739C7.13517 13.6902 7.06122 13.6304 7.00143 13.5612C7.00143 13.5612 6.99986 13.558 6.99671 13.5517C6.93692 13.4872 6.89287 13.4133 6.85353 13.3346C6.71036 13.0483 6.68518 12.7084 6.83308 12.3969L7.79913 10.3152L8.76991 12.3969C8.91781 12.7068 8.89263 13.0483 8.74946 13.3346H8.7526ZM9.37881 11.9988L8.20035 9.46869L8.42219 8.99037L9.60537 11.5252L9.37881 11.9988ZM9.02952 8.59072C8.88634 8.28075 8.90679 7.94404 9.04368 7.65925C9.13179 7.49089 9.2608 7.34928 9.41342 7.24543C9.42286 7.24071 9.4386 7.23127 9.44804 7.22498C9.51726 7.18092 9.59121 7.15103 9.66988 7.12113C9.69034 7.11641 9.7045 7.11169 9.71866 7.10697C9.80677 7.0818 9.90117 7.06764 10.0003 7.06764C10.0994 7.06764 10.1922 7.0818 10.2819 7.10697C10.2961 7.11169 10.3118 7.11641 10.326 7.12113C10.4046 7.15103 10.4833 7.18092 10.5525 7.22498C10.562 7.2297 10.573 7.23914 10.5872 7.24543C10.7398 7.34928 10.8688 7.49246 10.9522 7.65925C11.0954 7.94561 11.1142 8.28075 10.9726 8.59072L10.0019 10.6724L9.03109 8.59072H9.02952ZM10.6171 11.9988L10.3952 11.5252L11.5784 8.99037L11.8002 9.46869L10.6171 11.9988ZM13.147 13.3346C13.1077 13.4133 13.0637 13.4872 13.0039 13.5517C13.0039 13.5565 12.9992 13.5565 12.9992 13.5612C12.9346 13.6304 12.8654 13.6886 12.7867 13.739C12.7726 13.7484 12.7569 13.7594 12.7474 13.7642C12.6782 13.8035 12.6042 13.8381 12.5303 13.8633C12.5098 13.868 12.4957 13.8774 12.4768 13.8837C12.3887 13.9089 12.2943 13.9231 12.1999 13.9231C12.1008 13.9231 12.0079 13.9089 11.9182 13.8837C11.8978 13.879 11.8836 13.8696 11.8647 13.8633C11.7908 13.8381 11.7168 13.8035 11.6476 13.7642C11.6382 13.7594 11.6224 13.75 11.6083 13.739C11.5296 13.6902 11.4604 13.6304 11.3959 13.5612C11.3959 13.5565 11.3912 13.5565 11.3912 13.5517C11.3314 13.4872 11.2873 13.4133 11.248 13.3346C11.1048 13.0483 11.0796 12.7084 11.2275 12.3969L12.1983 10.3152L13.1644 12.3969C13.3123 12.7068 13.2871 13.0483 13.1439 13.3346H13.147ZM15.3671 8.59072L14.2673 10.9477L13.7795 11.9988L12.5964 9.46869L13.4255 7.68285C13.6033 7.30837 13.9825 7.06606 14.4026 7.06606C14.5599 7.06606 14.7078 7.10068 14.851 7.16519C15.3891 7.41694 15.6204 8.0526 15.3687 8.59072H15.3671Z" fill="url(#paint1_linear_1455_12750)"/>
<path d="M11.2544 6.87451C11.2796 6.89648 11.3047 6.91844 11.3268 6.94198C11.3047 6.91687 11.278 6.89648 11.2544 6.87451Z" fill="url(#paint2_linear_1455_12750)"/>
<path d="M11.5333 7.22373C11.5333 7.22373 11.5236 7.20804 11.5188 7.2002C11.5236 7.20804 11.5285 7.21588 11.5333 7.22373Z" fill="url(#paint3_linear_1455_12750)"/>
<path d="M6.85991 13.3554C6.86958 13.3711 6.88248 13.3852 6.89215 13.4009C6.88087 13.3836 6.86797 13.3679 6.85669 13.3491C6.85669 13.3507 6.8583 13.3523 6.85991 13.3538V13.3554Z" fill="url(#paint4_linear_1455_12750)"/>
<path d="M7.24395 13.7645C7.27542 13.7833 7.31161 13.7927 7.34465 13.8084C7.30846 13.7911 7.2707 13.7802 7.23608 13.7598C7.23923 13.7613 7.2408 13.7629 7.24395 13.7645Z" fill="url(#paint5_linear_1455_12750)"/>
<path d="M11.9294 9.19804L12.0726 8.89122L12.071 8.88965L11.9294 9.19804Z" fill="url(#paint6_linear_1455_12750)"/>
<path d="M11.6919 8.695C11.7139 8.62577 11.7344 8.55811 11.7485 8.4873C11.7328 8.55811 11.7139 8.62734 11.6919 8.695Z" fill="url(#paint7_linear_1455_12750)"/>
<path d="M7.00304 13.5676C7.03608 13.6021 7.07541 13.6272 7.1116 13.6586C7.07384 13.6272 7.03293 13.6005 7.00146 13.5645C7.00146 13.5645 7.00146 13.566 7.00304 13.5676Z" fill="url(#paint8_linear_1455_12750)"/>
<path d="M16.0768 7.52583C15.9147 7.0774 15.5843 6.71709 15.1548 6.52041C14.9125 6.40712 14.6623 6.35205 14.3996 6.35205C13.7041 6.35205 13.0638 6.75642 12.7727 7.38265L12.2189 8.57216L12.0725 8.89L11.9294 9.19839L11.8019 9.47374L11.9278 9.74437V9.74122L12.0002 9.89857L12.0694 10.0465H12.0725V10.0496L12.1984 10.3218L12.3274 10.0465L13.4272 7.68947C13.6019 7.31342 13.9842 7.07111 14.4011 7.07111C14.5569 7.07111 14.7079 7.10415 14.8496 7.17024C15.3845 7.42041 15.6174 8.05765 15.3672 8.59419L14.2674 10.9512L13.1676 13.3082C13.1613 13.3224 13.1487 13.3334 13.1424 13.3475C13.1078 13.4136 13.0685 13.4766 13.0197 13.5332C13.0103 13.5442 13.004 13.5568 12.9945 13.5678C12.9363 13.6323 12.8687 13.6874 12.7947 13.7377C12.7743 13.7519 12.7522 13.7629 12.7302 13.7755C12.7035 13.7912 12.6783 13.8101 12.6484 13.8243C12.6154 13.84 12.5792 13.8479 12.5461 13.8589C12.5194 13.8683 12.4942 13.8778 12.4675 13.8856C12.3856 13.9077 12.3022 13.9203 12.2157 13.9218C12.2078 13.9218 12.2 13.925 12.1921 13.925C12.0946 13.925 12.0002 13.9077 11.9073 13.8809C11.8963 13.8778 11.8853 13.8731 11.8743 13.8699C11.8302 13.8557 11.7862 13.8447 11.7437 13.8259C11.7059 13.8085 11.6729 13.7849 11.6367 13.7629C11.6288 13.7582 11.621 13.7535 11.6131 13.7488C11.5329 13.6968 11.4589 13.6355 11.396 13.5631C11.3913 13.5584 11.3881 13.5521 11.385 13.5474C11.333 13.486 11.289 13.4168 11.2512 13.3428C11.2434 13.3286 11.2324 13.3192 11.2261 13.305L10.9177 12.6458C10.9177 12.6458 10.9177 12.6474 10.9177 12.6489L10.7918 12.3767L10.6172 12.0022L10.3953 11.5255L11.5077 9.14489L11.6226 8.89786C11.654 8.83178 11.6713 8.76255 11.6934 8.69489C11.7154 8.62723 11.7343 8.55643 11.75 8.4872C11.8129 8.17094 11.794 7.84209 11.6808 7.53055C11.6414 7.42198 11.5911 7.32128 11.5344 7.22531C11.5297 7.21744 11.525 7.20957 11.5203 7.2017C11.4636 7.10887 11.3991 7.02391 11.3268 6.94366C11.3047 6.91849 11.2796 6.89646 11.2544 6.876C11.2056 6.8288 11.1568 6.7816 11.1018 6.73912C11.0719 6.71394 11.0388 6.69191 11.0058 6.66988C10.9255 6.61481 10.8437 6.56289 10.754 6.52198C10.7399 6.51254 10.7242 6.51254 10.7053 6.50153C10.6219 6.46691 10.5322 6.43702 10.4441 6.41341C10.4048 6.40397 10.3654 6.39296 10.3261 6.38824C10.227 6.36779 10.1294 6.35362 10.0256 6.35362H9.9768C9.87295 6.35362 9.76911 6.36779 9.67156 6.38824C9.63223 6.39296 9.59289 6.4024 9.55828 6.41341C9.46387 6.43859 9.37104 6.46691 9.28766 6.50782C9.2735 6.51254 9.25776 6.51254 9.2436 6.52198C9.21371 6.53614 9.18381 6.5566 9.15549 6.57548C9.102 6.60065 9.05165 6.62897 9.00759 6.65887C8.96354 6.68877 8.92421 6.71866 8.88487 6.75328C8.84082 6.78789 8.80148 6.82251 8.76215 6.86184C8.72753 6.89174 8.69764 6.92163 8.66774 6.95625C8.60324 7.02548 8.54502 7.10415 8.49467 7.18754C8.47422 7.21272 8.46006 7.24104 8.4459 7.27093C8.42544 7.31027 8.40184 7.34489 8.38139 7.38422L7.80396 8.62251L7.22653 7.38422C6.93545 6.758 6.29981 6.35362 5.60437 6.35362C5.34319 6.35362 5.08673 6.40712 4.84915 6.52198C4.4149 6.71866 4.08921 7.07898 3.92715 7.5274C3.7588 7.98055 3.78397 8.46517 3.98065 8.89786L6.18023 13.6119C6.20541 13.6559 6.22901 13.7 6.25418 13.7456C6.26834 13.7661 6.27935 13.7849 6.28879 13.8054C6.34229 13.8888 6.40208 13.9738 6.47131 14.0477L6.54526 14.1217C6.59403 14.1657 6.63966 14.2098 6.68843 14.2491C6.72777 14.279 6.76238 14.3089 6.80172 14.3325C6.85521 14.3671 6.91028 14.397 6.96377 14.4269C6.99367 14.4474 7.01727 14.4662 7.04716 14.4757C7.0566 14.4804 7.06762 14.4851 7.07706 14.4898C7.17146 14.5292 7.26429 14.5591 7.35869 14.5842C7.39803 14.5937 7.43264 14.6047 7.47198 14.6094C7.57582 14.6299 7.67966 14.644 7.78193 14.644H7.82127C7.92983 14.644 8.03367 14.6299 8.13122 14.6094C8.17056 14.6047 8.20517 14.5953 8.24451 14.5842C8.34363 14.5591 8.43646 14.5307 8.53086 14.4851C8.5403 14.4851 8.54502 14.4804 8.55603 14.4757H8.56075C8.59065 14.4615 8.61425 14.4458 8.63942 14.4316C8.75271 14.3671 8.7826 14.3482 8.8125 14.3278C8.84239 14.3073 8.877 14.2837 8.9006 14.2585C8.97455 14.1988 9.0485 14.1405 9.11301 14.0713C9.11301 14.0666 9.11773 14.0666 9.11773 14.0666C9.15707 14.0225 9.1964 13.9785 9.23101 13.9281C9.26091 13.8841 9.2908 13.84 9.31912 13.7897C9.32384 13.7849 9.32856 13.7755 9.33328 13.7645C9.38678 13.6701 9.43713 13.5725 9.47646 13.464C9.59446 13.143 9.61492 12.8078 9.54569 12.4821C9.53625 12.4428 9.52524 12.4035 9.51108 12.3641C9.4859 12.276 9.4623 12.1863 9.41667 12.0982L9.37734 12.0101L9.37262 12.0054L9.08626 11.3886H9.09098L8.19888 9.47059L8.42072 8.99227L8.54817 8.71535V8.71063L8.65201 8.48877L9.02647 7.68947C9.03119 7.68003 9.03591 7.67531 9.04064 7.66901V7.66429C9.05008 7.65013 9.06109 7.63912 9.06581 7.62496C9.0957 7.57146 9.13032 7.51639 9.16965 7.47233C9.17437 7.46761 9.17437 7.46289 9.17909 7.46289C9.21843 7.41412 9.26248 7.36377 9.30654 7.32915C9.34115 7.29926 9.37577 7.26936 9.41038 7.25048C9.41982 7.24104 9.43555 7.23632 9.44499 7.23003H9.44971C9.45915 7.22059 9.47489 7.20957 9.48905 7.20485C9.5331 7.17968 9.58345 7.1608 9.63223 7.14034C9.64167 7.13562 9.65268 7.1309 9.66684 7.12618H9.67156C9.69673 7.11674 9.72506 7.11202 9.75023 7.10572C9.78484 7.09156 9.81946 7.08527 9.85407 7.08055C9.90285 7.07111 9.9532 7.06639 10.002 7.06639C10.1546 7.06639 10.3072 7.101 10.4504 7.17024C10.4866 7.18754 10.5149 7.20957 10.5479 7.22845C10.5479 7.22845 10.5479 7.22845 10.5495 7.22845C10.5589 7.23317 10.5684 7.23789 10.5778 7.24733C10.6565 7.29611 10.7304 7.3559 10.7902 7.42513C10.8248 7.45975 10.8547 7.49436 10.8783 7.5337C10.8783 7.5337 10.8736 7.53842 10.8783 7.53842C10.9476 7.64226 10.9963 7.75555 11.0262 7.87356C11.031 7.87828 11.031 7.883 11.031 7.89401C11.0451 7.9538 11.0561 8.01674 11.0609 8.08125V8.16464C11.0609 8.2087 11.0561 8.25276 11.0514 8.29209C11.0467 8.31727 11.0467 8.34559 11.042 8.37076C11.0278 8.43055 11.0074 8.48405 10.9822 8.54384C10.9775 8.558 10.9727 8.57374 10.968 8.5879L9.99725 10.6743L9.86981 10.9449L9.72663 11.2501L9.59918 11.5208L9.72663 11.7914L9.77068 11.8905L9.99725 12.3736L10.57 13.6071C10.5951 13.6559 10.6235 13.6953 10.6486 13.7409C10.6581 13.7613 10.6691 13.7802 10.6785 13.8007C10.732 13.8841 10.7918 13.969 10.861 14.043C10.8862 14.0682 10.9098 14.0918 10.935 14.1169C10.979 14.161 11.0294 14.205 11.0829 14.2507C11.1175 14.2759 11.1521 14.3042 11.1914 14.3293C11.2449 14.364 11.3 14.3986 11.3598 14.4285C11.3897 14.4426 11.4086 14.4631 11.4385 14.4725C11.4479 14.4773 11.4589 14.4773 11.4636 14.482C11.558 14.526 11.6556 14.5559 11.7547 14.5811C11.7893 14.5905 11.8287 14.6016 11.8633 14.6063C11.9671 14.6267 12.071 14.6409 12.1732 14.6409H12.2126C12.3211 14.6409 12.425 14.6267 12.5288 14.6063C12.5634 14.6016 12.598 14.5921 12.6374 14.5811C12.7365 14.5559 12.8341 14.5276 12.9285 14.482C12.9332 14.4773 12.9426 14.4773 12.9536 14.4725C12.9788 14.4631 13.0024 14.4426 13.0276 14.4285C13.0874 14.3986 13.1456 14.364 13.2007 14.3293C13.2353 14.3042 13.2746 14.2759 13.3092 14.246C13.358 14.2066 13.4083 14.1626 13.4524 14.1185C13.4776 14.0933 13.5059 14.0697 13.5311 14.0446C13.5956 13.9706 13.6538 13.8919 13.7089 13.8023C13.723 13.7818 13.734 13.7582 13.7482 13.7377C13.7734 13.6937 13.797 13.6543 13.8174 13.6103L16.017 8.89629C16.22 8.46202 16.2388 7.97898 16.0768 7.52583ZM8.76844 12.3987C8.89116 12.6552 8.90218 12.9463 8.80306 13.2169C8.7826 13.2704 8.759 13.3208 8.72911 13.3743C8.70865 13.4089 8.68505 13.4482 8.65988 13.4828C8.62998 13.5222 8.60009 13.5568 8.57177 13.5914C8.52299 13.6449 8.46793 13.6905 8.40971 13.7299C8.37982 13.7503 8.34992 13.7645 8.3216 13.7834C8.27283 13.8085 8.22248 13.8321 8.1737 13.8479C8.13909 13.862 8.09975 13.8778 8.06514 13.8872C8.00063 13.9014 7.9314 13.9124 7.86375 13.9171C7.84329 13.9171 7.82441 13.9218 7.80396 13.9218C7.77249 13.9218 7.74417 13.9108 7.7127 13.9077C7.58369 13.8967 7.46096 13.862 7.34768 13.8085C7.31464 13.7928 7.27845 13.7834 7.24698 13.7645C7.24384 13.7613 7.24226 13.7613 7.23912 13.7598C7.19349 13.7314 7.15415 13.6937 7.11325 13.6575C7.07706 13.6276 7.03772 13.6024 7.00468 13.5662C7.00468 13.5662 7.00468 13.5647 7.00311 13.5631C6.95905 13.5143 6.92759 13.4561 6.89297 13.401C6.88353 13.3853 6.87095 13.3711 6.86151 13.3554C6.86151 13.3538 6.85993 13.3522 6.85836 13.3507C6.84892 13.3349 6.83633 13.3208 6.82846 13.305L5.72867 10.948V10.9449L4.63203 8.59262C4.38029 8.0545 4.61157 7.41884 5.14967 7.16709C5.29285 7.10258 5.44074 7.06796 5.59808 7.06796C6.0166 7.06796 6.39736 7.31027 6.57515 7.68475L7.40904 9.47531L7.80396 10.3234L8.77001 12.4003L8.76844 12.3987Z" fill="url(#paint9_linear_1455_12750)"/>
<path d="M10.5542 7.23145C10.6455 7.28809 10.7288 7.35103 10.7949 7.42812C10.7304 7.3526 10.647 7.28809 10.5558 7.23145H10.5542Z" fill="url(#paint10_linear_1455_12750)"/>
<path d="M9.31128 7.32882C9.35533 7.29431 9.39939 7.25979 9.44974 7.22998C9.4403 7.23469 9.42456 7.23939 9.41512 7.25038C9.38051 7.27077 9.34589 7.29901 9.31128 7.32882Z" fill="url(#paint11_linear_1455_12750)"/>
<path d="M10.5558 7.23145C10.647 7.28809 10.7304 7.35103 10.7949 7.42812C10.7351 7.35889 10.6612 7.30068 10.5825 7.25033C10.5731 7.24089 10.5636 7.23617 10.5542 7.23145H10.5558Z" fill="url(#paint12_linear_1455_12750)"/>
<path d="M10.0068 7.06641C9.95801 7.06641 9.90766 7.07113 9.85889 7.08057C9.90294 7.07585 9.95329 7.07113 10.0021 7.07113C10.0965 7.07113 10.194 7.08529 10.2837 7.11046C10.2979 7.11518 10.3136 7.1199 10.3278 7.12462C10.4064 7.1498 10.4851 7.18284 10.5543 7.22847C10.5213 7.20801 10.493 7.18599 10.4568 7.17025C10.3136 7.10102 10.161 7.06641 10.0084 7.06641H10.0068Z" fill="url(#paint13_linear_1455_12750)"/>
<path d="M10.4551 7.16992C10.4913 7.18718 10.5196 7.20914 10.5526 7.22797C10.5196 7.20758 10.4913 7.18561 10.4551 7.16992Z" fill="url(#paint14_linear_1455_12750)"/>
<path d="M10.5527 7.22998L10.5555 7.23163L10.5527 7.22998Z" fill="url(#paint15_linear_1455_12750)"/>
<path d="M10.5527 7.22998L10.5555 7.23163L10.5527 7.22998Z" fill="url(#paint16_linear_1455_12750)"/>
<path d="M12.0695 10.0464L12.0002 9.89697L12.0679 10.0464H12.0695Z" fill="url(#paint17_linear_1455_12750)"/>
<path d="M12.6499 13.8255C12.6798 13.8114 12.7034 13.7925 12.7317 13.7769C12.6735 13.8098 12.6121 13.838 12.5476 13.86C12.5822 13.8475 12.6168 13.8412 12.6499 13.8255Z" fill="url(#paint18_linear_1455_12750)"/>
<path d="M10.9917 6.6574C10.9477 6.6275 10.9036 6.6039 10.8533 6.574C10.8234 6.55984 10.7935 6.53467 10.7542 6.52051C10.8438 6.56142 10.9256 6.61491 11.0059 6.66841C11.0012 6.66526 10.9965 6.66054 10.9917 6.6574Z" fill="url(#paint19_linear_1455_12750)"/>
<path d="M11.1207 6.75143C11.1207 6.75143 11.1081 6.74358 11.1018 6.7373C11.1553 6.77967 11.2056 6.82516 11.2544 6.8738C11.2497 6.86909 11.245 6.86439 11.2387 6.85968C11.1994 6.82046 11.1647 6.78594 11.1207 6.75143Z" fill="url(#paint20_linear_1455_12750)"/>
<path d="M11.3377 6.95291C11.3377 6.95291 11.3298 6.94661 11.3267 6.94189C11.399 7.02214 11.4635 7.10868 11.5202 7.19994C11.517 7.19522 11.5139 7.18892 11.5107 7.1842C11.4573 7.10081 11.4022 7.02214 11.3377 6.95291Z" fill="url(#paint21_linear_1455_12750)"/>
<defs>
<linearGradient id="paint0_linear_1455_12750" x1="-4.33717e-05" y1="10.0008" x2="20.0008" y2="10.0008" gradientUnits="userSpaceOnUse">
<stop stop-color="#550099"/>
<stop offset="1" stop-color="#0066EE"/>
</linearGradient>
<linearGradient id="paint1_linear_1455_12750" x1="3.81691" y1="10.4946" x2="16.1852" y2="10.4946" gradientUnits="userSpaceOnUse">
<stop stop-color="#550099"/>
<stop offset="1" stop-color="#0066EE"/>
</linearGradient>
<linearGradient id="paint2_linear_1455_12750" x1="11.2544" y1="6.90903" x2="11.3268" y2="6.90903" gradientUnits="userSpaceOnUse">
<stop stop-color="#550099"/>
<stop offset="1" stop-color="#0066EE"/>
</linearGradient>
<linearGradient id="paint3_linear_1455_12750" x1="11.5188" y1="7.21275" x2="11.5333" y2="7.21275" gradientUnits="userSpaceOnUse">
<stop stop-color="#550099"/>
<stop offset="1" stop-color="#0066EE"/>
</linearGradient>
<linearGradient id="paint4_linear_1455_12750" x1="6.85669" y1="13.3758" x2="6.89215" y2="13.3758" gradientUnits="userSpaceOnUse">
<stop stop-color="#550099"/>
<stop offset="1" stop-color="#0066EE"/>
</linearGradient>
<linearGradient id="paint5_linear_1455_12750" x1="7.23766" y1="13.7833" x2="7.34465" y2="13.7833" gradientUnits="userSpaceOnUse">
<stop stop-color="#550099"/>
<stop offset="1" stop-color="#0066EE"/>
</linearGradient>
<linearGradient id="paint6_linear_1455_12750" x1="11.9294" y1="9.04384" x2="12.0726" y2="9.04384" gradientUnits="userSpaceOnUse">
<stop stop-color="#550099"/>
<stop offset="1" stop-color="#0066EE"/>
</linearGradient>
<linearGradient id="paint7_linear_1455_12750" x1="11.6919" y1="8.59115" x2="11.7485" y2="8.59115" gradientUnits="userSpaceOnUse">
<stop stop-color="#550099"/>
<stop offset="1" stop-color="#0066EE"/>
</linearGradient>
<linearGradient id="paint8_linear_1455_12750" x1="6.99989" y1="13.61" x2="7.1116" y2="13.61" gradientUnits="userSpaceOnUse">
<stop stop-color="#550099"/>
<stop offset="1" stop-color="#0066EE"/>
</linearGradient>
<linearGradient id="paint9_linear_1455_12750" x1="3.81387" y1="10.4965" x2="16.1854" y2="10.4965" gradientUnits="userSpaceOnUse">
<stop stop-color="#550099"/>
<stop offset="1" stop-color="#0066EE"/>
</linearGradient>
<linearGradient id="paint10_linear_1455_12750" x1="10.5542" y1="7.329" x2="10.7949" y2="7.329" gradientUnits="userSpaceOnUse">
<stop stop-color="#550099"/>
<stop offset="1" stop-color="#0066EE"/>
</linearGradient>
<linearGradient id="paint11_linear_1455_12750" x1="9.31128" y1="7.27862" x2="9.44816" y2="7.27862" gradientUnits="userSpaceOnUse">
<stop stop-color="#550099"/>
<stop offset="1" stop-color="#0066EE"/>
</linearGradient>
<linearGradient id="paint12_linear_1455_12750" x1="10.5558" y1="7.329" x2="10.7949" y2="7.329" gradientUnits="userSpaceOnUse">
<stop stop-color="#550099"/>
<stop offset="1" stop-color="#0066EE"/>
</linearGradient>
<linearGradient id="paint13_linear_1455_12750" x1="9.85731" y1="7.14822" x2="10.5527" y2="7.14822" gradientUnits="userSpaceOnUse">
<stop stop-color="#550099"/>
<stop offset="1" stop-color="#0066EE"/>
</linearGradient>
<linearGradient id="paint14_linear_1455_12750" x1="10.4551" y1="7.19973" x2="10.5526" y2="7.19973" gradientUnits="userSpaceOnUse">
<stop stop-color="#550099"/>
<stop offset="1" stop-color="#0066EE"/>
</linearGradient>
<linearGradient id="paint15_linear_1455_12750" x1="10.5527" y1="7.22998" x2="10.5555" y2="7.22998" gradientUnits="userSpaceOnUse">
<stop stop-color="#550099"/>
<stop offset="1" stop-color="#0066EE"/>
</linearGradient>
<linearGradient id="paint16_linear_1455_12750" x1="10.5527" y1="7.22998" x2="10.5555" y2="7.22998" gradientUnits="userSpaceOnUse">
<stop stop-color="#550099"/>
<stop offset="1" stop-color="#0066EE"/>
</linearGradient>
<linearGradient id="paint17_linear_1455_12750" x1="12.0002" y1="9.9725" x2="12.0695" y2="9.9725" gradientUnits="userSpaceOnUse">
<stop stop-color="#550099"/>
<stop offset="1" stop-color="#0066EE"/>
</linearGradient>
<linearGradient id="paint18_linear_1455_12750" x1="12.5476" y1="13.8176" x2="12.7301" y2="13.8176" gradientUnits="userSpaceOnUse">
<stop stop-color="#550099"/>
<stop offset="1" stop-color="#0066EE"/>
</linearGradient>
<linearGradient id="paint19_linear_1455_12750" x1="10.7557" y1="6.59446" x2="11.0075" y2="6.59446" gradientUnits="userSpaceOnUse">
<stop stop-color="#550099"/>
<stop offset="1" stop-color="#0066EE"/>
</linearGradient>
<linearGradient id="paint20_linear_1455_12750" x1="11.1018" y1="6.80634" x2="11.2544" y2="6.80634" gradientUnits="userSpaceOnUse">
<stop stop-color="#550099"/>
<stop offset="1" stop-color="#0066EE"/>
</linearGradient>
<linearGradient id="paint21_linear_1455_12750" x1="11.3267" y1="7.07249" x2="11.5186" y2="7.07249" gradientUnits="userSpaceOnUse">
<stop stop-color="#550099"/>
<stop offset="1" stop-color="#0066EE"/>
</linearGradient>
</defs>
</svg>
